<?xml version="1.0" encoding="UTF-8" standalone="no"?>
<svg xmlns:dc="http://purl.org/dc/elements/1.1/" xmlns:cc="http://creativecommons.org/ns#" xmlns:rdf="http://www.w3.org/1999/02/22-rdf-syntax-ns#" xmlns:svg="http://www.w3.org/2000/svg" xmlns="http://www.w3.org/2000/svg" xmlns:sodipodi="http://sodipodi.sourceforge.net/DTD/sodipodi-0.dtd" xmlns:inkscape="http://www.inkscape.org/namespaces/inkscape" id="svg232" version="1.1" height="1200" width="6400" sodipodi:docname="level.svg" inkscape:version="0.92.2 2405546, 2018-03-11">
  <sodipodi:namedview pagecolor="#ffffff" bordercolor="#666666" borderopacity="1" objecttolerance="10" gridtolerance="10" guidetolerance="10" inkscape:pageopacity="0" inkscape:pageshadow="2" inkscape:window-width="1920" inkscape:window-height="1051" id="namedview3997" showgrid="false" inkscape:zoom="1.5733333" inkscape:cx="978.00498" inkscape:cy="225.11141" inkscape:window-x="1920" inkscape:window-y="8" inkscape:window-maximized="1" inkscape:current-layer="g230" inkscape:measure-start="1021.11,-79.1001" inkscape:measure-end="999.153,340.678" />
  <metadata id="metadata238">
    <rdf:RDF>
      <cc:Work rdf:about="">
        <dc:format>image/svg+xml</dc:format>
        <dc:type rdf:resource="http://purl.org/dc/dcmitype/StillImage" />
        <dc:title></dc:title>
      </cc:Work>
    </rdf:RDF>
  </metadata>
  <defs id="defs236" />
  <g id="g230" transform="translate(0,600.6356)">
    <title id="title219">Layer 1</title>
    <ellipse id="svg_3" cy="-257.29272" cx="55.33548" style="fill:#000000;fill-opacity:0.5;stroke:#000000;stroke-width:5.11399889;stroke-dasharray:4.0911992, 4.0911992" rx="15.2047" ry="15.905932" />
    <line stroke-linejoin="null" stroke-linecap="null" x1="1758.4867" y1="559.78699" x2="1932.1547" y2="558.25403" id="svg_7" style="fill:none;stroke:#0000ff;stroke-width:5.11399889;stroke-dasharray:4.0911992, 4.0911992" />
    <ellipse cy="-361.95096" cx="52.604671" id="svg_5" style="fill:#ff0000;fill-opacity:0.5;stroke:#ff0000;stroke-width:5.11399889;stroke-dasharray:4.0911992, 4.0911992" rx="15.2047" ry="15.905932" />
    <ellipse cy="-422.70248" cx="52.593319" id="svg_6" style="fill:#ff0000;fill-opacity:0.5;stroke:#ff0000;stroke-width:5.11399889;stroke-dasharray:4.0911992, 4.0911992" rx="15.2047" ry="15.905932" />
    <ellipse cy="416.29312" cx="805.80621" id="svg_8" style="fill:#ff0000;fill-opacity:0.5;stroke:#ff0000;stroke-width:5.11399889;stroke-dasharray:4.0911992, 4.0911992" rx="15.2047" ry="15.905932" />
    <path style="fill:none;stroke:#000000;stroke-width:0.40813118px;stroke-linecap:butt;stroke-linejoin:miter;stroke-opacity:1" d="m 26.663577,-292.41164 c 9.31664,438.48427 55.88727,563.44019 227.113373,678.75834 171.22611,115.31815 284.23614,94.96438 335.05646,40.36697 62.86954,-67.54213 4.37528,-253.32906 4.37528,-253.32906 l -17.6626,49.24444" id="path4001" inkscape:connector-curvature="0" sodipodi:nodetypes="ccscc" />
    <path style="fill:none;stroke:#000000;stroke-width:1px;stroke-linecap:butt;stroke-linejoin:miter;stroke-opacity:1" d="M 502.11864,216.73728 C 399.15254,117.58474 388.98305,79.449147 388.98305,79.449147 l 48.30509,3.813557 c 0,0 -130.93221,-129.661012 19.06779,-130.932202 150,-1.27119 203.38983,137.288132 203.38983,137.288132" id="path4812" inkscape:connector-curvature="0" sodipodi:nodetypes="cccsc" />
    <path style="fill:none;stroke:#000000;stroke-width:1px;stroke-linecap:butt;stroke-linejoin:miter;stroke-opacity:1" d="m 603.81356,214.19491 c 24.57147,137.14601 125.80824,262.39926 221.99454,214.2252 55.02963,-28.49726 108.32892,30.78409 150.46309,31.11379 59.58611,-4.54609 124.57631,-71.18645 123.30511,-115.67797 -1.2712,-44.49153 -66.1017,-113.1356 -66.1017,-113.1356" id="path4818" inkscape:connector-curvature="0" sodipodi:nodetypes="ccccc" />
    <path style="fill:none;stroke:#000000;stroke-width:1px;stroke-linecap:butt;stroke-linejoin:miter;stroke-opacity:1" d="m 830.08474,327.3305 c 0,0 74.3644,12.07628 108.68644,-12.07627 33.05085,-29.23728 60.38134,-56.5678 60.38134,-56.5678 l 21.61018,47.0339 c 0,0 33.0508,39.40678 5.0847,48.30509 -27.96607,8.8983 -195.76266,-26.69492 -195.76266,-26.69492 z" id="path4822" inkscape:connector-curvature="0" sodipodi:nodetypes="ccccsc" />
    <path style="fill:none;stroke:#000000;stroke-width:1px;stroke-linecap:butt;stroke-linejoin:miter;stroke-opacity:1" d="m 659.74576,89.61863 c 0,0 -61.01695,-207.20338 76.27119,-167.796602 68.64407,19.70339 95.02119,24.788135 142.37289,73.2521172 47.35169,48.4639828 124.57626,158.1038148 124.57626,158.1038148 0,0 105.5085,-13.98305 144.9153,43.22034 39.4067,57.20339 64.1491,111.28993 115.6779,156.35593 48.0772,42.04741 80.5036,78.55032 155.0098,79.85455 37.6288,0.65869 65.6309,-15.89738 93.8927,-54.89897" id="path4833" inkscape:connector-curvature="0" sodipodi:nodetypes="cssccssc" />
    <path style="fill:none;stroke:#000000;stroke-width:1px;stroke-linecap:butt;stroke-linejoin:miter;stroke-opacity:1" d="m 1099.5763,340.04237 c 0,0 69.0788,129.47167 141.1016,158.89831 135.159,55.22243 257.011,62.123 314.2145,-100.58895" id="path4835" inkscape:connector-curvature="0" sodipodi:nodetypes="csc" />
    <path style="fill:none;stroke:#000000;stroke-width:1px;stroke-linecap:butt;stroke-linejoin:miter;stroke-opacity:1" d="m 1599.668,315.33908 c 12.7119,-100.42373 -40.4789,-151.02443 -141.9233,-158.27045 -71.1864,-5.08474 -150.9137,21.15964 -170.2377,95.99329 -12.4325,48.14586 6.9524,85.65768 51.638,111.03409 44.6857,25.37641 77.3668,35.34007 173.3168,13.6138" id="path4837" inkscape:connector-curvature="0" sodipodi:nodetypes="csssc" />
    <path style="fill:none;stroke:#000000;stroke-width:1.35410559px;stroke-linecap:butt;stroke-linejoin:miter;stroke-opacity:1" d="m 1495.0405,319.57818 67.9332,-27.25966" id="path4841" inkscape:connector-curvature="0" />
    <path style="fill:none;stroke:#000000;stroke-width:1px;stroke-linecap:butt;stroke-linejoin:miter;stroke-opacity:1" d="m 1554.8924,398.35173 c -1.6545,16.74547 9.1319,103.93527 90.0297,91.35117 80.8978,-12.5841 79.999,-141.12171 77.3024,-173.48083 -2.6966,-32.35913 -21.5728,-88.08873 -21.5728,-88.08873 l -17.9773,34.15685" id="path4851" inkscape:connector-curvature="0" />
    <path style="fill:none;stroke:#000000;stroke-width:1px;stroke-linecap:butt;stroke-linejoin:miter;stroke-opacity:1" d="m 1589.1925,228.13334 c 64.7183,34.15685 64.7183,34.15685 64.7183,34.15685" id="path4853" inkscape:connector-curvature="0" />
    <ellipse cy="246.61015" cx="1667.7966" id="svg_8-3" style="fill:#ff0000;fill-opacity:0.5;stroke:#ff0000;stroke-width:5.11399889;stroke-dasharray:4.0911992, 4.0911992" rx="15.2047" ry="15.905932" />
    <path style="fill:none;stroke:#000000;stroke-width:1px;stroke-linecap:butt;stroke-linejoin:miter;stroke-opacity:1" d="m 1589.1925,228.13334 c -35.8027,-102.92148 3.6041,-147.41301 29.0278,-156.31131 25.4238,-8.89831 124.0549,-18.779948 211.017,48.30508 88.983,68.64407 113.0729,146.46665 120.7627,293.38307 2.2124,42.26759 -15.9142,69.99001 -34.9704,75.91145 -50.6444,15.73699 -51.9471,36.36753 -51.5474,55.6883" id="path4870" inkscape:connector-curvature="0" sodipodi:nodetypes="cssssc" />
    <path style="fill:none;stroke:#000000;stroke-width:1px;stroke-linecap:butt;stroke-linejoin:miter;stroke-opacity:1" d="m 1723.1233,332.40163 c -2.6965,63.81938 8.9887,119.54897 28.7637,137.52627 19.775,17.9773 35.0557,14.3818 61.1228,34.1569 26.0671,19.775 22.4716,41.7972 22.4716,41.7972" id="path4872" inkscape:connector-curvature="0" sodipodi:nodetypes="cscc" />
    <ellipse cy="389.03009" cx="1851.6609" id="svg_8-3-6" style="fill:#ff0000;fill-opacity:0.5;stroke:#ff0000;stroke-width:5.11399889;stroke-dasharray:4.0911992, 4.0911992" rx="15.2047" ry="15.905932" />
    <ellipse cy="420.49036" cx="1893.9076" id="svg_8-3-7" style="fill:#ff0000;fill-opacity:0.5;stroke:#ff0000;stroke-width:5.11399889;stroke-dasharray:4.0911992, 4.0911992" rx="15.2047" ry="15.905932" />
    <ellipse cy="504.98361" cx="1843.5713" id="svg_8-3-5" style="fill:#ff0000;fill-opacity:0.5;stroke:#ff0000;stroke-width:5.11399889;stroke-dasharray:4.0911992, 4.0911992" rx="15.2047" ry="15.905932" />
    <ellipse cy="455.54608" cx="1798.6279" id="svg_8-3-3" style="fill:#ff0000;fill-opacity:0.5;stroke:#ff0000;stroke-width:5.11399889;stroke-dasharray:4.0911992, 4.0911992" rx="15.2047" ry="15.905932" />
    <ellipse cy="379.14258" cx="1778.8529" id="svg_8-3-56" style="fill:#ff0000;fill-opacity:0.5;stroke:#ff0000;stroke-width:5.11399889;stroke-dasharray:4.0911992, 4.0911992" rx="15.2047" ry="15.905932" />
    <ellipse cy="335.9971" cx="1830.0881" id="svg_8-3-2" style="fill:#ff0000;fill-opacity:0.5;stroke:#ff0000;stroke-width:5.11399889;stroke-dasharray:4.0911992, 4.0911992" rx="15.2047" ry="15.905932" />
    <ellipse cy="346.78348" cx="1891.2109" id="svg_8-3-9" style="fill:#ff0000;fill-opacity:0.5;stroke:#ff0000;stroke-width:5.11399889;stroke-dasharray:4.0911992, 4.0911992" rx="15.2047" ry="15.905932" />
    <ellipse cy="415.052" cx="750.57068" id="svg_8-3-1" style="fill:#ff0000;fill-opacity:0.5;stroke:#ff0000;stroke-width:5.11399889;stroke-dasharray:4.0911992, 4.0911992" rx="15.2047" ry="15.905932" />
    <ellipse cy="371.05283" cx="1406.7229" id="svg_8-3-27" style="fill:#ff0000;fill-opacity:0.5;stroke:#ff0000;stroke-width:5.11399889;stroke-dasharray:4.0911992, 4.0911992" rx="15.2047" ry="15.905932" />
    <path style="fill:none;stroke:#000000;stroke-width:1;stroke-linecap:butt;stroke-linejoin:miter;stroke-opacity:1;stroke-miterlimit:4;stroke-dasharray:8,4;stroke-dashoffset:0" d="m 82.695539,-208.71483 24.269341,157.30129 c 0,0 -1.12358,-16.85371 4.49432,-31.46026" id="path5233" inkscape:connector-curvature="0" sodipodi:nodetypes="ccc" />
    <path style="fill:none;stroke:#000000;stroke-width:1;stroke-linecap:butt;stroke-linejoin:miter;stroke-opacity:1;stroke-miterlimit:4;stroke-dasharray:8,4;stroke-dashoffset:0" d="m 106.96488,-51.41354 c 0,0 -4.43224,-17.235216 -12.352232,-28.936828" id="path5237" inkscape:connector-curvature="0" sodipodi:nodetypes="cc" />
    <path style="fill:none;stroke:#000000;stroke-width:1;stroke-linecap:butt;stroke-linejoin:miter;stroke-miterlimit:4;stroke-dasharray:8, 4;stroke-dashoffset:0;stroke-opacity:1" d="M 538.70107,249.14479 C 528.5651,92.558692 629.671,104.21059 652.19348,161.76328" id="path5281" inkscape:connector-curvature="0" sodipodi:nodetypes="cc" />
    <path style="fill:none;stroke:#000000;stroke-width:1;stroke-linecap:butt;stroke-linejoin:miter;stroke-miterlimit:4;stroke-dasharray:8, 4;stroke-dashoffset:0;stroke-opacity:1" d="m 649.76672,134.42671 c 0,0 -1.91009,16.0672 2.87619,27.67364 -3.21327,-9.24692 -24.22423,-13.96595 -24.22423,-13.96595" id="path5283" inkscape:connector-curvature="0" sodipodi:nodetypes="ccc" />
    <path style="fill:none;stroke:#000000;stroke-width:1;stroke-linecap:butt;stroke-linejoin:miter;stroke-opacity:1;stroke-miterlimit:4;stroke-dasharray:8,4;stroke-dashoffset:0" d="m 1670.339,177.3305 c 55.9322,-75.67883 169.0677,51.10081 165.2542,101.69492" id="path5285" inkscape:connector-curvature="0" sodipodi:nodetypes="cc" />
    <path style="fill:none;stroke:#000000;stroke-width:1;stroke-linecap:butt;stroke-linejoin:miter;stroke-miterlimit:4;stroke-dasharray:8, 4;stroke-dashoffset:0;stroke-opacity:1" d="m 1841.2562,250.2282 c 0,0 -5.955,16.51663 -5.663,28.79722 1.0563,-9.69635 -17.7074,-25.42647 -17.7074,-25.42647" id="path5283-3" inkscape:connector-curvature="0" sodipodi:nodetypes="ccc" />
  </g>
</svg>
